<?xml version="1.0" encoding="UTF-8" standalone="no"?>
<svg
   xmlns:dc="http://purl.org/dc/elements/1.1/"
   xmlns:cc="http://creativecommons.org/ns#"
   xmlns:rdf="http://www.w3.org/1999/02/22-rdf-syntax-ns#"
   xmlns:svg="http://www.w3.org/2000/svg"
   xmlns="http://www.w3.org/2000/svg"
   viewBox="0 0 17.2875 17.5"
   height="17.5"
   width="17.2875"
   xml:space="preserve"
   version="1.1"
   id="svg2"><metadata
     id="metadata8"><rdf:RDF><cc:Work
         rdf:about=""><dc:format>image/svg+xml</dc:format><dc:type
           rdf:resource="http://purl.org/dc/dcmitype/StillImage" /></cc:Work></rdf:RDF></metadata><defs
     id="defs6" /><g
     transform="matrix(1.25,0,0,-1.25,0,17.5)"
     id="g10"><path
       id="path12"
       style="fill:none;stroke:#000000;stroke-width:0.035;stroke-linecap:round;stroke-linejoin:round;stroke-miterlimit:10;stroke-dasharray:none;stroke-opacity:1"
       d="m 6.5,13.56 -0.6,-0.02 0,0 -0.62,-0.06 0,0 -0.56,-0.09 0,0 -0.38,-0.11 0,0 -0.36,-0.16 0,0 -0.48,-0.25 0,0 -0.5,-0.3 0,0 -0.46,-0.3 0,0 -0.51,-0.43 0,0 -0.46,-0.49 0,0 -0.41,-0.58 0,0 -0.4,-0.72 0,0 -0.38,-0.83 0,0 -0.21,-0.67 0,0 -0.11,-0.67 0,0 L 0.02,7 l 0,0 0.04,-0.88 0,0 0.11,-0.67 0,0 0.21,-0.67 0,0 0.38,-0.83 0,0 0.4,-0.72 0,0 0.41,-0.58 0,0 0.46,-0.49 0,0 0.51,-0.43 0,0 0.46,-0.3 0,0 0.5,-0.3 0,0 0.48,-0.25 0,0 0.36,-0.16 0,0 0.38,-0.11 0,0 0.56,-0.09 0,0 0.62,-0.06 0,0 0.6,-0.02 0,0 0.6,0.02 0,0 0.62,0.06 0,0 0.56,0.09 0,0 0.38,0.11 0,0 0.36,0.16 0,0 0.48,0.25 0,0 0.5,0.3 0,0 0.46,0.3 0,0 0.51,0.43 0,0 0.46,0.49 0,0 0.41,0.58 0,0 0.4,0.72 0,0 0.38,0.83 0,0 0.21,0.67 0,0 0.11,0.67 0,0 0.04,0.88 0,0 -0.04,0.88 0,0 -0.11,0.67 0,0 -0.21,0.67 0,0 -0.38,0.83 0,0 -0.4,0.72 0,0 -0.41,0.58 0,0 -0.46,0.49 0,0 -0.51,0.43 0,0 -0.46,0.3 0,0 -0.5,0.3 0,0 -0.48,0.25 0,0 -0.36,0.16 0,0 -0.38,0.11 0,0 -0.56,0.09 0,0 -0.62,0.06 0,0 -0.6,0.02" /><path
       id="path14"
       style="fill:none;stroke:#000000;stroke-width:0.035;stroke-linecap:round;stroke-linejoin:round;stroke-miterlimit:10;stroke-dasharray:none;stroke-opacity:1"
       d="m 7.09,12.98 0.46,-0.08 0,0 0.49,-0.1 0,0 0.47,-0.13 0,0 0.34,-0.12 0,0 0.33,-0.16 0,0 0.4,-0.24 0,0 0.41,-0.28 0,0 0.35,-0.27 0,0 0.34,-0.34 0,0 0.39,-0.48 0,0 0.37,-0.53 0,0 0.29,-0.51 0,0 0.31,-0.67 0,0 0.18,-0.61 0,0 0.1,-0.65 0,0 0.04,-0.81 0,0 -0.03,-0.85 0,0 -0.1,-0.63 0,0 -0.2,-0.61 0,0 -0.36,-0.73 0,0 -0.34,-0.55 0,0 -0.44,-0.58 0,0 -0.47,-0.52 0,0 -0.44,-0.39 0,0 -0.47,-0.31 0,0 -0.59,-0.3 0,0 -0.61,-0.25 0,0 -0.55,-0.15 0,0 -0.65,-0.11 0,0 -0.59,-0.04 0,0 -0.59,0.04 0,0 -0.66,0.1 0,0 -0.57,0.16 0,0 -0.61,0.24 0,0 -0.58,0.3 0,0 -0.49,0.32 0,0 -0.43,0.38 0,0 -0.48,0.53 0,0 -0.44,0.58 0,0 -0.34,0.55 0,0 -0.35,0.73 0,0 -0.21,0.61 0,0 -0.1,0.64 0,0 -0.03,0.84 0,0 0.03,0.84 0,0 0.1,0.64 0,0 0.2,0.6 0,0 0.36,0.73 0,0 0.33,0.54 0,0 0.42,0.56 0,0 0.44,0.52 0,0 0.38,0.35 0,0 0.42,0.3 0,0 0.53,0.29 0,0 0.56,0.26 0,0 0.49,0.17 0,0 0.52,0.11 0,0 0.59,0.07 0,0 0.59,0.03 0,0 0.49,-0.03" /><path
       id="path16"
       style="fill:none;stroke:#000000;stroke-width:0.035;stroke-linecap:round;stroke-linejoin:round;stroke-miterlimit:10;stroke-dasharray:none;stroke-opacity:1"
       d="M 7.73,10.06 7.55,10 l 0,0 -0.47,-0.38 0,0 -0.55,-0.49 0,0 -0.6,-0.58 0,0 -0.6,-0.64 0,0 -0.45,-0.55 0,0 -0.3,-0.44 0,0 -0.03,-0.1 0.01,-0.11 0,0 0.12,-0.2 0,0 0.43,-0.44 0,0 0.53,-0.52 0,0 0.61,-0.55 0,0 0.61,-0.51 0,0 0.53,-0.41 0,0 0.45,-0.3 0,0 0.07,-0.01 0.05,0.02 0,0 0.03,0.06 -0.02,0.06 0,0 -0.34,0.45 0,0 -0.45,0.53 0,0 -0.58,0.6 -1.51,1.54 1.47,1.34 0,0 0.57,0.52 0,0 0.48,0.48 0,0 0.38,0.4 0,0 0.05,0.11 0,0 -0.03,0.07 0,0 -0.07,0.06 0,0 -0.09,0.04 0,0 -0.12,0.01" /></g></svg>